PathFileType	4	(X/Y/Z)	s08c0403.trc
DataRate	CameraRate	NumFrames	NumMarkers	Units	OrigDataRate	OrigDataStartFrame	OrigNumFrames
200	200	4	50	mm	200	1500	2000
Frame#	Time	racr			lacr			c7			jug			rlel			rdr			llel			ldr			s2			lic			ric			lasi			rasi			rpsi			lpsi			rgt			lgt			rth1			rth2			rth3			rth4			rlfc			rmfc			rsh1			rsh2			rsh3			rsh4			rlmal			rmmal			rcal			rtoe			rmt5			lth1			lth2			lth4			lth3			llfc			lmfc			llmal			lmmal			lcal			lmt5			lsh1			lsh2			lsh3			lsh4			ltoe			SBIKE			LBIKE			RBIKE			
		X1	Y1	Z1	X2	Y2	Z2	X3	Y3	Z3	X4	Y4	Z4	X5	Y5	Z5	X6	Y6	Z6	X7	Y7	Z7	X8	Y8	Z8	X9	Y9	Z9	X10	Y10	Z10	X11	Y11	Z11	X12	Y12	Z12	X13	Y13	Z13	X14	Y14	Z14	X15	Y15	Z15	X16	Y16	Z16	X17	Y17	Z17	X18	Y18	Z18	X19	Y19	Z19	X20	Y20	Z20	X21	Y21	Z21	X22	Y22	Z22	X23	Y23	Z23	X24	Y24	Z24	X25	Y25	Z25	X26	Y26	Z26	X27	Y27	Z27	X28	Y28	Z28	X29	Y29	Z29	X30	Y30	Z30	X31	Y31	Z31	X32	Y32	Z32	X33	Y33	Z33	X34	Y34	Z34	X35	Y35	Z35	X36	Y36	Z36	X37	Y37	Z37	X38	Y38	Z38	X39	Y39	Z39	X40	Y40	Z40	X41	Y41	Z41	X42	Y42	Z42	X43	Y43	Z43	X44	Y44	Z44	X45	Y45	Z45	X46	Y46	Z46	X47	Y47	Z47	X48	Y48	Z48	X49	Y49	Z49	X50	Y50	Z50	
1500	7.5000	897.089398	1303.423195	-100.411439	834.932747	1342.107026	-428.740425	873.536034	1372.356205	-247.683233	778.265300	1245.635790	-242.898556	709.746240	1166.457892	90.373107	754.541514	935.006088	-50.845974	661.412240	1156.928613	-571.568807	756.387928	922.530840	-449.847598	284.135275	1274.671745	-277.546717	454.290505	1251.423368	-404.498244	419.643397	1243.190596	-89.642194	463.578616	1193.716039	-362.386665	426.620947	1194.599665	-110.191143	318.261711	1306.749349	-217.749694	330.084124	1312.370548	-312.749134	314.479815	1150.716121	-78.926085	393.161717	1132.237195	-445.385063	395.882960	995.354115	-55.293162	455.253121	929.684262	-47.175286	474.730604	845.023417	-52.758365	488.204531	946.813127	-47.882020	528.990660	736.068265	-58.094081	523.626219	723.115072	-170.713488	450.565099	628.297545	-33.207632	440.234313	540.056630	-49.427141	388.113719	471.760396	-57.355027	470.539468	531.986500	-76.182690	334.789903	362.228081	-68.053863	359.726069	379.897036	-153.900202	252.377666	352.721092	-116.485243	538.734979	268.105135	-102.319996	440.846689	259.111811	-40.091624	444.898021	1002.562562	-433.985946	493.003278	932.380424	-415.140316	521.885201	945.226128	-398.135654	501.263297	843.877089	-410.057673	499.955567	717.317099	-384.434360	473.359279	701.012400	-277.714050	136.611691	503.113973	-409.382394	166.100718	491.169943	-323.607999	87.620600	545.720152	-367.278540	127.280325	333.072328	-419.135774	395.646721	646.049698	-412.817052	333.808940	590.221468	-402.323905	248.823627	563.359604	-407.679528	343.983465	571.306598	-364.208067	189.565988	275.097688	-347.591080	-199.066796	921.711656	-227.119671	-8.791501	80.892692	-426.797177	-8.795353	80.267469	-28.393837	
1501	7.5050	897.367999	1305.463737	-103.215477	834.504726	1341.728170	-432.773309	873.696890	1373.651297	-251.408050	777.862473	1247.392376	-245.427571	710.516123	1168.435408	87.949822	755.176943	935.058648	-50.821859	662.752159	1154.688358	-567.501473	755.567143	922.598324	-450.258827	283.372419	1273.026048	-275.150267	452.858464	1250.872559	-403.145066	421.291530	1240.890328	-88.343985	463.039401	1193.384674	-361.130911	428.446492	1192.577301	-109.793416	317.969217	1304.299443	-215.570256	328.897366	1311.148923	-310.614731	315.494466	1146.342160	-78.255220	393.049454	1132.100757	-444.162638	393.908255	989.365659	-55.870226	451.812398	922.328412	-48.472246	469.618190	837.425452	-55.240802	485.170043	938.664354	-48.972676	521.854181	728.192666	-60.906212	515.484399	715.170160	-172.983088	444.839248	619.735104	-34.980752	435.688267	531.328622	-50.264890	384.457440	462.349202	-58.330251	465.960724	523.906036	-77.094840	331.993795	352.708578	-67.853727	356.381441	369.655736	-154.400906	249.589678	343.669930	-116.313702	535.406291	256.750551	-102.705457	437.607752	248.644628	-40.336932	446.393731	1003.074265	-432.384576	495.555215	933.855691	-412.883426	524.438132	947.148234	-394.622257	505.612504	845.603873	-408.125738	506.780128	720.269973	-381.259300	479.259677	703.900777	-274.791371	140.064164	513.224225	-408.481524	168.971888	501.308111	-321.879477	90.762995	555.767329	-366.700807	130.762521	343.750350	-419.257589	401.830701	651.099452	-410.187305	338.791382	596.546824	-400.176098	253.408350	571.237549	-406.004810	348.520335	577.297650	-362.177769	193.252575	285.551850	-347.799280	-199.133540	921.586332	-227.569102	-8.831927	80.695843	-426.734927	-8.832372	80.112941	-28.553176	
1502	7.5100	898.142812	1307.695036	-106.702690	834.240319	1341.060025	-436.403029	873.819853	1374.649565	-255.280503	778.339446	1248.177191	-247.968139	711.386228	1170.317308	85.367882	755.698796	934.998620	-50.972147	663.627463	1152.609766	-564.615832	755.110391	922.465160	-450.572988	283.011696	1271.477518	-272.522566	451.351172	1250.251902	-401.609840	423.189644	1238.777963	-86.994967	462.329143	1193.088826	-359.706188	430.456288	1190.336799	-109.441878	317.954196	1301.826114	-212.787799	327.754978	1309.884343	-308.000728	316.552550	1141.879036	-77.174669	392.464686	1131.963394	-442.810245	392.092389	983.458015	-56.385472	448.437821	914.887654	-49.993685	464.313411	829.748654	-57.859056	482.165454	930.643094	-50.393480	514.387878	720.062592	-63.874981	506.583856	707.281758	-175.539075	438.538851	611.362407	-36.308621	430.503309	522.816328	-52.303146	380.170363	453.120734	-59.303085	460.563125	515.802425	-78.841163	328.728547	343.332567	-67.742385	352.531871	359.978923	-154.615932	246.371776	334.885264	-116.116805	531.389941	245.586179	-103.291800	433.782061	238.464874	-40.659536	447.596680	1003.651444	-430.376610	498.002670	935.422206	-410.680610	526.513908	949.256000	-392.327947	509.815764	847.347057	-405.972678	513.562958	723.526413	-378.303059	485.277996	706.850489	-272.193020	143.890611	523.205314	-407.771169	172.397966	510.799314	-321.036445	94.366555	566.270316	-367.063554	134.993574	353.777813	-419.099884	408.023050	656.256101	-407.708772	343.901957	602.758661	-398.150826	258.120016	579.141827	-404.457816	353.027900	583.139986	-359.966750	197.720313	295.900288	-347.958810	-199.270462	921.583672	-228.028426	-8.855695	80.611591	-426.793814	-8.832076	80.234571	-28.482594	
1503	7.5150	898.517972	1310.213688	-109.619558	833.923149	1340.147778	-440.135785	873.936024	1375.628593	-259.424484	778.072742	1249.550730	-250.264718	712.109083	1172.237232	82.839813	756.114721	934.823452	-51.218432	663.602263	1150.857923	-563.877309	754.724755	922.288403	-451.112401	282.351158	1269.916395	-269.265387	449.735681	1249.685371	-400.207353	425.249538	1236.458565	-85.677002	461.391685	1192.897345	-358.328132	432.654113	1187.870424	-109.141883	318.039805	1299.510838	-209.592474	326.644681	1308.734921	-305.334675	317.498752	1137.119406	-75.970468	391.406064	1131.803960	-441.269780	390.417833	977.602757	-56.798164	445.085308	907.572358	-51.634040	459.199014	822.126466	-60.517808	479.166080	922.297309	-52.068820	506.668442	712.305550	-67.076730	497.612892	699.527712	-177.892310	431.805558	603.104456	-38.307212	424.595745	514.493552	-53.516060	375.272107	444.126714	-60.320794	454.615187	507.885814	-80.700924	324.896876	334.443305	-67.431481	348.174590	350.553495	-154.802559	242.577969	326.516433	-115.842701	526.860460	234.612049	-103.965485	429.340238	228.537846	-40.872773	448.525492	1004.357045	-428.398923	500.531920	937.116012	-408.612278	528.849092	951.659185	-389.916941	514.126145	849.439517	-403.745946	520.391169	726.993811	-375.529278	491.339723	709.866950	-269.643916	147.878681	532.932881	-406.873383	176.315164	519.881166	-320.974175	97.665367	575.409774	-366.193497	139.926332	363.768780	-419.173038	414.196814	661.485871	-405.314917	349.109290	609.073899	-396.317333	263.003749	586.911159	-402.933616	367.330736	597.094390	-370.249996	202.933477	306.178496	-348.057698	-199.464469	921.280119	-228.655922	-8.858293	80.527495	-426.834910	-8.855673	80.239446	-28.507644	
